<svg width="20" height="20" viewBox="0 0 20 20" fill="none" xmlns="http://www.w3.org/2000/svg">
<path d="M17 8.2C17 13.6 10 19 10 19C10 19 3 13.6 3 8.2C3 6.29044 3.7375 4.45909 5.05025 3.10883C6.36301 1.75857 8.14348 1 10 1C11.8565 1 13.637 1.75857 14.9497 3.10883C16.2625 4.45909 17 6.29044 17 8.2V8.2Z" stroke="#056AC7" stroke-width="2" stroke-linecap="round" stroke-linejoin="round"/>
<path d="M10 11C11.6569 11 13 9.65685 13 8C13 6.34315 11.6569 5 10 5C8.34315 5 7 6.34315 7 8C7 9.65685 8.34315 11 10 11Z" stroke="#056AC7" stroke-width="2" stroke-linecap="round" stroke-linejoin="round"/>
</svg>
